HIERARCHY
ROOT Hips
{
	OFFSET -0.179506 -22.333345 2.821913
	CHANNELS 6 Xposition Yposition Zposition Zrotation Yrotation Xrotation 
	JOINT LeftUpLeg
	{
		OFFSET 6.951974 -9.140623 -0.681533
		CHANNELS 3 Zrotation Yrotation Xrotation
		JOINT LeftLeg
		{
			OFFSET 3.427654 -37.519855 -0.449580
			CHANNELS 3 Zrotation Yrotation Xrotation
			JOINT LeftFoot
			{
				OFFSET -1.359570 -39.796059 -4.369333
				CHANNELS 3 Zrotation Yrotation Xrotation
				JOINT LeftToe
				{
					OFFSET 2.635814 -5.579078 11.928840
					CHANNELS 3 Zrotation Yrotation Xrotation
					End Site
					{
						OFFSET 0.000000 0.000000 0.000000
					}
				}
			}
		}
	}
	JOINT RightUpLeg
	{
		OFFSET -6.767048 -9.052170 -0.431982
		CHANNELS 3 Zrotation Yrotation Xrotation
		JOINT RightLeg
		{
			OFFSET -3.829005 -38.256897 -0.885003
			CHANNELS 3 Zrotation Yrotation Xrotation
			JOINT RightFoot
			{
				OFFSET 1.577377 -39.841461 -4.231180
				CHANNELS 3 Zrotation Yrotation Xrotation
				JOINT RightToe
				{
					OFFSET -2.537174 -4.814398 12.334795
					CHANNELS 3 Zrotation Yrotation Xrotation
					End Site
					{
						OFFSET 0.000000 0.000000 0.000000
					}
				}
			}
		}
	}
	JOINT Spine
	{
		OFFSET -0.253288 10.896323 -2.669631
		CHANNELS 3 Zrotation Yrotation Xrotation
		JOINT Spine1
		{
			OFFSET 0.548704 13.518043 0.109247
			CHANNELS 3 Zrotation Yrotation Xrotation
			JOINT Spine2
			{
				OFFSET 0.145701 5.292222 2.542457
				CHANNELS 3 Zrotation Yrotation Xrotation
				JOINT Neck
				{
					OFFSET -0.277840 21.387037 -4.285703
					CHANNELS 3 Zrotation Yrotation Xrotation
					JOINT Head
					{
						OFFSET 0.515184 6.496960 5.134897
						CHANNELS 3 Zrotation Yrotation Xrotation
						End Site
						{
							OFFSET 0.000000 0.000000 0.000000
						}
					}
				}
				JOINT LeftShoulder
				{
					OFFSET 7.884473 12.174932 -3.408961
					CHANNELS 3 Zrotation Yrotation Xrotation
					JOINT LeftArm
					{
						OFFSET 9.097692 3.046888 -0.886815
						CHANNELS 3 Zrotation Yrotation Xrotation
						JOINT LeftForeArm
						{
							OFFSET 25.961220 -1.277207 -2.745643
							CHANNELS 3 Zrotation Yrotation Xrotation
							JOINT LeftHand
							{
								OFFSET 24.923361 0.898606 -0.117091
								CHANNELS 3 Zrotation Yrotation Xrotation
								End Site
								{
									OFFSET 0.000000 0.000000 0.000000
								}
							}
						}
					}
				}
				JOINT RightShoulder
				{
					OFFSET -8.175920 11.883285 -3.861528
					CHANNELS 3 Zrotation Yrotation Xrotation
					JOINT RightArm
					{
						OFFSET -9.601238 3.255117 -0.914307
						CHANNELS 3 Zrotation Yrotation Xrotation
						JOINT RightForeArm
						{
							OFFSET -25.374195 -1.332924 -2.140099
							CHANNELS 3 Zrotation Yrotation Xrotation
							JOINT RightHand
							{
								OFFSET -25.529810 0.777228 -0.555919
								CHANNELS 3 Zrotation Yrotation Xrotation
								End Site
								{
									OFFSET 0.000000 0.000000 0.000000
								}
							}
						}
					}
				}
			}
		}
	}
}
MOTION
Frames: 12
Frame Time: 0.033333
67.091301 25.726519 92.678200 -177.192535 -0.394910 90.807428 1.482299 1.945425 2.719526 -4.017854 -4.524463 -5.672151 3.547272 9.408881 -5.296495 nan nan nan -4.194575 -4.173852 0.547052 4.790174 -3.399603 -2.245134 1.561796 -7.625730 -5.346872 nan nan nan -1.006393 1.489311 1.492621 1.823195 -4.039576 7.480907 1.784911 -1.311780 -4.759567 -1.376194 2.016613 -0.491574 3.925062 -0.196997 5.835429 -29.346146 -3.095227 6.278158 -57.180539 -5.732269 13.543036 6.770049 -21.078106 8.795840 -14.613896 -15.783796 1.981900 30.148387 5.210968 7.478778 54.065788 3.340422 11.811793 -13.271893 25.082927 -3.110792 11.169487 9.948627 -4.349856 
67.079926 25.696180 92.663750 -177.219829 -0.248952 90.880483 1.643085 1.903863 2.636757 -4.026440 -4.637637 -5.674253 3.284424 9.512179 -5.419300 nan nan nan -3.954088 -4.128197 0.428679 4.635140 -3.257999 -2.174653 2.083015 -7.805626 -5.408753 nan nan nan -0.739723 1.262187 1.407421 1.655427 -3.876921 7.426353 1.773492 -1.198457 -4.598749 -1.227951 1.975172 -0.697987 3.855633 -0.045159 6.496084 -29.218118 -3.108381 6.304296 -57.406710 -5.873683 13.687139 6.968770 -21.034999 8.721090 -14.425343 -15.869432 1.722129 29.952419 5.192385 7.362483 54.441026 3.351259 12.006878 -13.514415 25.030657 -3.012625 11.216331 9.948002 -4.542508 
67.072754 25.602795 92.682274 -177.335894 0.003853 91.204743 1.881219 1.901558 2.157994 -4.006960 -4.556872 -5.512502 3.208586 9.540295 -5.423962 nan nan nan -3.586172 -4.012153 -0.180037 4.530583 -3.336981 -1.827484 2.143005 -7.848569 -5.413864 nan nan nan -0.384260 1.248603 1.164768 1.686231 -3.809962 7.453459 1.671421 -1.125576 -4.767785 -1.281191 1.953092 -0.386410 3.903028 -0.008790 6.197861 -29.261273 -3.114717 6.158200 -57.496169 -5.776875 13.996466 7.095305 -20.959230 8.511335 -14.542635 -15.804890 1.992640 29.858705 5.226447 7.260413 54.523353 3.153127 12.087504 -13.535690 25.098377 -2.930582 11.217681 9.930956 -4.396854 
67.073013 25.662544 92.649948 -177.137045 -0.182913 91.041765 1.697905 1.858680 2.355131 -4.005469 -4.594912 -5.508548 3.171282 9.457555 -5.500964 nan nan nan -3.854535 -4.178617 0.175947 4.638406 -3.411426 -1.951455 2.129458 -7.848322 -5.493866 nan nan nan -0.584557 1.186492 1.225529 1.595540 -3.863634 7.427935 1.721659 -1.207406 -4.501110 -1.172630 2.049105 -0.503420 3.879199 -0.116317 5.883973 -29.021732 -3.133928 6.131552 -57.588734 -5.946742 13.858815 6.933839 -20.980989 8.877439 -14.678573 -15.877021 2.020077 29.723271 5.198255 7.190438 54.753239 3.285450 12.074169 -13.551880 25.142625 -2.743194 11.184027 9.827939 -4.329916 
67.068405 25.692139 92.653809 -177.023715 -0.180524 91.102209 1.713593 1.846711 2.252272 -4.058953 -4.528117 -5.434226 3.204533 9.445238 -5.563469 nan nan nan -3.864257 -4.237323 0.192246 4.667583 -3.403820 -2.041421 2.140857 -7.884686 -5.402282 nan nan nan -0.589028 1.153132 1.060184 1.609584 -3.890672 7.488636 1.716978 -1.231216 -4.464474 -1.023541 2.086942 -0.610447 3.809525 -0.173978 5.953168 -28.970065 -3.166647 6.124768 -57.609034 -6.046713 13.888019 6.802104 -20.858699 8.965268 -14.669598 -15.876951 2.048231 29.675388 5.170277 7.128687 54.800437 3.337771 12.166216 -13.490594 24.928702 -2.585255 11.254703 9.831973 -4.140534 
67.047371 25.683815 92.647041 -176.924193 -0.011771 91.427052 1.911898 1.766029 1.808627 -4.194595 -4.429526 -5.326589 3.545435 9.480584 -5.601977 nan nan nan -3.685750 -4.256936 -0.163333 4.717399 -3.403733 -2.039110 1.955487 -7.896744 -5.354454 nan nan nan -0.377679 1.082390 0.388920 1.725224 -4.023242 8.144121 1.664083 -1.191469 -4.797867 -1.082401 2.278718 -0.786500 3.734479 -0.305232 6.202672 -28.982170 -3.152947 6.078778 -57.743534 -6.106355 13.996374 6.840886 -20.663283 8.820742 -14.943641 -16.088528 2.228741 29.442890 5.275178 7.235224 54.972022 3.478585 12.140501 -13.526904 24.632965 -2.437355 11.646958 10.053454 -3.901385 
67.042305 25.681040 92.661865 -176.909970 0.113298 91.576548 2.056494 1.663597 1.635939 -4.242336 -4.402719 -5.346193 3.702277 9.449861 -5.523291 nan nan nan -3.496679 -4.235818 -0.309584 4.657153 -3.402451 -2.093475 1.886944 -7.897521 -5.334330 nan nan nan -0.244249 1.000597 0.074664 1.764454 -4.053992 8.361439 1.652772 -1.137031 -4.927630 -1.109962 2.364891 -0.783088 3.711672 -0.323886 6.376554 -28.980313 -3.099188 6.043728 -57.802765 -6.112386 14.094475 6.827255 -20.580882 8.742429 -15.016179 -16.200185 2.336621 29.386803 5.312972 7.294105 55.003549 3.563548 12.157430 -13.523174 24.406131 -2.443307 11.774291 10.225927 -3.885125 
67.039230 25.676863 92.662842 -176.891466 0.170151 91.565401 2.122333 1.559839 1.667187 -4.253367 -4.423910 -5.384929 3.773507 9.401629 -5.385153 nan nan nan -3.419040 -4.237351 -0.263305 4.643752 -3.417565 -2.158607 1.850796 -7.896971 -5.365216 nan nan nan -0.202132 0.911559 0.039590 1.772329 -4.048439 8.359341 1.707243 -1.110824 -4.891182 -1.170607 2.386998 -0.732500 3.732763 -0.328862 6.346000 -28.983751 -3.075130 6.034617 -57.918506 -6.152477 14.099361 6.946786 -20.548327 8.775627 -15.187884 -16.307974 2.324836 29.328492 5.345431 7.345174 55.021009 3.601431 12.137712 -13.586263 24.364419 -2.485619 11.711126 10.275981 -4.037490 
67.037399 25.668943 92.660973 -176.875740 0.196568 91.558910 2.154289 1.527688 1.653495 -4.267502 -4.462922 -5.358712 3.771744 9.387035 -5.357879 nan nan nan -3.372191 -4.246301 -0.255867 4.625156 -3.384958 -2.216790 1.946321 -7.905798 -5.418276 nan nan nan -0.147432 0.865384 0.038346 1.761159 -4.046085 8.296685 1.718387 -1.115580 -4.832979 -1.256556 2.357972 -0.678319 3.749505 -0.322356 6.267964 -28.965045 -3.066432 5.995574 -58.046089 -6.195808 14.126066 7.082769 -20.448411 8.826911 -15.231898 -16.275705 2.248051 29.270737 5.373491 7.355379 55.067721 3.637801 12.135415 -13.614846 24.280881 -2.487421 11.645916 10.247675 -4.156782 
67.042183 25.656397 92.666946 -176.888227 0.200017 91.571866 2.160617 1.554732 1.607620 -4.276610 -4.485097 -5.311184 3.728481 9.365285 -5.379911 nan nan nan -3.355982 -4.248763 -0.321610 4.629744 -3.404247 -2.170449 2.027467 -7.920533 -5.501409 nan nan nan -0.115452 0.865921 0.024971 1.743013 -4.039642 8.272344 1.705547 -1.150027 -4.788003 -1.237001 2.403418 -0.673651 3.752948 -0.294577 6.197658 -28.902029 -3.085962 5.966168 -58.091114 -6.208395 14.176231 7.091434 -20.458682 8.920097 -15.098181 -16.248589 2.172728 29.257447 5.406627 7.356890 55.078645 3.723242 12.146619 -13.564316 24.209195 -2.472027 11.609549 10.243866 -4.218961 
67.041069 25.646624 92.675285 -176.888594 0.179723 91.603488 2.132448 1.557335 1.541772 -4.269666 -4.496720 -5.260512 3.675881 9.335204 -5.387373 nan nan nan -3.400085 -4.240973 -0.380497 4.699636 -3.455247 -2.128247 1.998479 -7.958872 -5.533339 nan nan nan -0.119733 0.880152 -0.020008 1.726673 -4.023358 8.295744 1.694548 -1.163072 -4.762562 -1.183765 2.443398 -0.694571 3.765173 -0.343020 6.048662 -28.863503 -3.146941 5.949979 -58.076993 -6.236993 14.172758 7.005524 -20.459384 8.892684 -14.951737 -16.285509 2.117385 29.294723 5.405469 7.324626 55.050820 3.709016 12.177553 -13.524008 24.239577 -2.349140 11.479089 10.217852 -4.019088 
67.037560 25.637835 92.681015 -176.875566 0.170337 91.608915 2.107089 1.553940 1.497309 -4.269473 -4.485624 -5.208767 3.666492 9.349418 -5.412880 nan nan nan -3.424199 -4.220144 -0.383625 4.709575 -3.432027 -2.143540 1.980819 -7.946957 -5.483087 nan nan nan -0.131536 0.885421 -0.024548 1.727293 -4.021846 8.298746 1.695704 -1.152691 -4.741016 -1.176954 2.444270 -0.685951 3.794288 -0.376807 5.910743 -28.824225 -3.177938 5.916917 -58.096269 -6.277704 14.164950 6.927855 -20.399172 8.826348 -14.865765 -16.292204 2.095073 29.279653 5.397490 7.293312 55.077466 3.700474 12.194756 -13.496527 24.213824 -2.271812 11.353007 10.187662 -3.833794 
